<svg width="89" height="48" viewBox="0 0 89 48" fill="none" xmlns="http://www.w3.org/2000/svg">
<g clip-path="url(#clip0)">
<path d="M51.5111 30.849L48.5111 27.6792C49.3035 26.1509 49.6997 24.5094 49.8695 23.6603H47.6054C47.4922 24.283 47.2658 25.132 46.8696 25.9811L42.4545 21.3396C42.228 21.1132 41.7186 20.3207 42.4545 19.5848C42.8507 19.132 43.5299 19.0754 43.9828 19.0754C44.8884 19.132 46.5299 19.8113 46.6997 19.9811L46.7563 17.6603C46.1337 17.3207 45.0582 16.9245 44.379 16.8679C42.9639 16.7547 41.7186 17.1509 40.8695 18.0565C39.3978 19.5848 39.8507 21.3396 40.4733 22.3584C39.2846 23.2641 38.2658 24.6792 38.2092 26.2641C38.1526 27.5094 38.4922 28.6415 39.2846 29.6037C40.2469 30.6792 41.4356 31.2452 42.7941 31.2452C42.9073 31.2452 43.0771 31.2452 43.1903 31.2452C44.7186 31.132 46.1903 30.3396 47.1526 29.5471L48.5111 30.9622H51.5111V30.849ZM43.0205 28.9245C42.1714 28.9811 41.4922 28.6981 40.9828 28.0754C40.5299 27.566 40.3601 27.0565 40.4167 26.4339C40.4733 25.5282 41.2092 24.566 41.945 23.9433L45.6809 27.849C45.0016 28.4716 44.1526 28.8679 43.0205 28.9245Z" fill="white"/>
<path d="M70.3034 34.6415V26.2642H61.0204V34.6415H56.3789V13.3585H61.0204V22.2453H70.3034V13.3585H74.9449V34.6981H70.3034V34.6415Z" fill="white"/>
<path d="M27.2253 34.6415V26.2642H17.9423V34.6415H13.3008V13.3585H17.9423V22.2453H27.2253V13.3585H31.8668V34.6981H27.2253V34.6415Z" fill="white"/>
<path d="M84.2264 4.01887V43.9811H4.01887V4.01887H84.2264ZM88.2453 0H0V48H88.2453V0Z" fill="white"/>
</g>
<defs>
<clipPath id="clip0">
<rect width="88.2453" height="48" fill="white"/>
</clipPath>
</defs>
</svg>