<svg id="Ñëîé_1" data-name="Ñëîé 1" xmlns="http://www.w3.org/2000/svg" viewBox="0 0 449.27 389.22"><defs><style>.cls-1{fill:#d4eaff;}.cls-2{fill:#f0f6ff;}.cls-3{fill:#ebf3ff;}.cls-4{fill:#a6cfff;}.cls-5{fill:#bbd4ff;}.cls-6{fill:#aacdfe;}.cls-7{fill:#765bc8;}.cls-8{fill:#6f64c9;}.cls-9{fill:#5d6fc5;}.cls-10{fill:#6264bf;}.cls-11{fill:#607ace;}.cls-12{fill:#4c63ad;}.cls-13{fill:#488ac9;}.cls-14{fill:#4082bc;}.cls-15{fill:#2c6d99;}.cls-16{fill:#2c719d;}.cls-17{fill:#2db8d9;}.cls-18{fill:#19637c;}.cls-19{fill:#083e43;}.cls-20{fill:#025355;}.cls-21{fill:#12404c;}.cls-22{fill:#1a6a86;}.cls-23{fill:#2690b3;}.cls-24{fill:#195e78;}.cls-25{fill:#154b60;}.cls-26{fill:#132d40;}.cls-27{fill:#3c7fb7;}.cls-28{fill:#4b3d7f;}.cls-29{fill:#43356e;}.cls-30{fill:#0f0f1c;}.cls-31{fill:#2e2850;}.cls-32{fill:#4f2c6a;}.cls-33{fill:#301135;}.cls-34{fill:#894fb3;}.cls-35{fill:#391b49;}.cls-36{fill:#a339ab;}.cls-37{fill:#c555c1;}.cls-38{fill:#cd45bb;}.cls-39{fill:#e747b6;}.cls-40{fill:#f46cbe;}.cls-41{fill:#fb4fab;}.cls-42{fill:#6e0138;}.cls-43{fill:#76013c;}.cls-44{fill:#fe0983;}.cls-45{fill:#ff3a9c;}.cls-46{fill:#fc0483;}.cls-47{fill:#fe59ae;}.cls-48{fill:#ff75bb;}.cls-49{fill:#be0876;}.cls-50{fill:#8e0f68;}.cls-51{fill:#cb0d87;}.cls-52{fill:#f52197;}.cls-53{fill:#cf026b;}.cls-54{fill:#f52699;}.cls-55{fill:#1c3d59;}.cls-56{fill:#1e5574;}.cls-57{fill:#277ea4;}.cls-58{fill:#84c8f8;}.cls-59{fill:#82b3f0;}.cls-60{fill:#8635a2;}.cls-61{fill:#50a5e0;}.cls-62{fill:#63d6ff;}.cls-63{fill:#6cc7ff;}.cls-64{fill:#858ce6;}.cls-65{fill:#776aca;}.cls-66{fill:#7c83d8;}.cls-67{fill:#4caee3;}.cls-68{fill:#882a9e;}.cls-69{fill:#ab7dda;}.cls-70{fill:#bf70d1;}.cls-71{fill:#0b3c47;}.cls-72{fill:#03c5c7;}.cls-73{fill:#048d8f;}.cls-74{fill:#019a9b;}.cls-75{fill:#01cbcb;}.cls-76{fill:#0a9197;}.cls-77{fill:#13a1ae;}.cls-78{fill:#17ced9;}.cls-79{fill:#01d7d8;}.cls-80{fill:#0dcfd5;}.cls-81{fill:#018a8b;}.cls-82{fill:#09b7bc;}.cls-83{fill:#0d7c84;}.cls-84{fill:#01aeaf;}.cls-85{fill:#01e0e1;}.cls-86{fill:#025f60;}.cls-87{fill:#0e5761;}.cls-88{fill:#115763;}.cls-89{fill:#016a6a;}.cls-90{fill:#019c9c;}.cls-91{fill:#017f80;}.cls-92{fill:#1f4263;}.cls-93{fill:#144654;}.cls-94{fill:#7b65d1;}.cls-95{fill:#e9efff;}.cls-96{fill:#d6d8ea;}.cls-97{fill:#f2f0fe;}.cls-98{fill:#d6ccf9;}.cls-99{fill:#e9daf9;}.cls-100{fill:#f8e8fa;}.cls-101{fill:#edbcf4;}.cls-102{fill:#f298e5;}.cls-103{fill:#fac5f0;}.cls-104{fill:#f193ea;}.cls-105{fill:#f7a0ea;}.cls-106{fill:#f8aeef;}.cls-107{fill:#f762df;}.cls-108{fill:#3e012e;}.cls-109{fill:#7b0159;}.cls-110{fill:#310125;}.cls-111{fill:#b4017f;}.cls-112{fill:#f017b8;}.cls-113{fill:#fb8de5;}.cls-114{fill:#fa78e5;}.cls-115{fill:#4a023f;}.cls-116{fill:#0e010b;}.cls-117{fill:#9e028c;}.cls-118{fill:#f02ee0;}.cls-119{fill:#77026c;}.cls-120{fill:#fce3fb;}.cls-121{fill:#f582ee;}.cls-122{fill:#fce5fc;}.cls-123{fill:#fde8fc;}.cls-124{fill:#f374eb;}.cls-125{fill:#f042e3;}.cls-126{fill:#730369;}.cls-127{fill:#fdf2fd;}.cls-128{fill:#f8c7f8;}.cls-129{fill:#900584;}.cls-130{fill:#52044c;}.cls-131{fill:#f5c8f9;}.cls-132{fill:#f9e7fc;}.cls-133{fill:#f7e3fd;}.cls-134{fill:#faecfe;}.cls-135{fill:#fbf5fe;}.cls-136{fill:#e685ee;}.cls-137{fill:#e05ee7;}.cls-138{fill:#f9c4f7;}.cls-139{fill:#facbf8;}.cls-140{fill:#590352;}.cls-141{fill:#080108;}.cls-142{fill:#4b0348;}.cls-143{fill:#030103;}.cls-144{fill:#060105;}.cls-145{fill:#f02fe6;}.cls-146{fill:#facdfa;}.cls-147{fill:#f9d2fc;}.cls-148{fill:#fbdefd;}.cls-149{fill:#dc0bc7;}.cls-150{fill:#f8a0f3;}.cls-151{fill:#4f0245;}.cls-152{fill:#9e028e;}.cls-153{fill:#22011c;}.cls-154{fill:#780260;}.cls-155{fill:#fa6ee7;}.cls-156{fill:#22011d;}.cls-157{fill:#a6016f;}.cls-158{fill:#fd8fd7;}.cls-159{fill:#fc50be;}.cls-160{fill:#f824ae;}.cls-161{fill:#f40899;}.cls-162{fill:#c7027f;}.cls-163{fill:#f218a5;}.cls-164{fill:#fb69c1;}.cls-165{fill:#ea3fa9;}.cls-166{fill:#fd58b3;}.cls-167{fill:#ff8cca;}.cls-168{fill:#fda1d4;}.cls-169{fill:#fcbee3;}.cls-170{fill:#faa5db;}.cls-171{fill:#ef9cd6;}.cls-172{fill:#41032a;}.cls-173{fill:#300221;}.cls-174{fill:#190211;}.cls-175{fill:#58043d;}.cls-176{fill:#960768;}.cls-177{fill:#41032d;}.cls-178{fill:#ec3dba;}.cls-179{fill:#c50784;}.cls-180{fill:#f07ed1;}.cls-181{fill:#2e031d;}.cls-182{fill:#ef36b5;}.cls-183{fill:#ee2cad;}.cls-184{fill:#10010a;}.cls-185{fill:#15010d;}.cls-186{fill:#43012a;}.cls-187{fill:#eb109b;}.cls-188{fill:#960562;}.cls-189{fill:#43032b;}.cls-190{fill:#6c0343;}.cls-191{fill:#ec0896;}.cls-192{fill:#f061c6;}.cls-193{fill:#ea4ec5;}.cls-194{fill:#ef49bd;}.cls-195{fill:#320323;}.cls-196{fill:#72054d;}.cls-197{fill:#940869;}.cls-198{fill:#e782d7;}.cls-199{fill:#fff;}.cls-200{fill:#e592dd;}.cls-201{fill:#e2a8e8;}.cls-202{fill:#dfc4f3;}.cls-203{fill:#e874d3;}.cls-204{fill:#e953c7;}.cls-205{fill:#70044b;}.cls-206{fill:#8f055f;}.cls-207{fill:#ef42b8;}.cls-208{fill:#eb52c1;}.cls-209{fill:#e761c9;}.cls-210{fill:#fabfe4;}.cls-211{fill:#530335;}.cls-212{fill:#b1046f;}.cls-213{fill:#f896d4;}.cls-214{fill:#fd6dba;}.cls-215{fill:#fb8dca;}.cls-216{fill:#f9c5e7;}.cls-217{fill:#f2b3e3;}.cls-218{fill:#ed9edb;}.cls-219{fill:#e1bced;}.cls-220{fill:#e5d3f5;}.cls-221{fill:#d4c4f4;}.cls-222{fill:#ac99eb;}.cls-223{fill:#a484e6;}.cls-224{fill:#909bf0;}.cls-225{fill:#90b4fc;}.cls-226{fill:#fa1c9a;}.cls-227{fill:#fe7ac4;}.cls-228{fill:#fc30a9;}.cls-229{fill:#f446c2;}.cls-230{fill:#f041bf;}.cls-231{fill:#e732bb;}.cls-232{fill:#f10da6;}.cls-233{fill:#1d0115;}.cls-234{fill:#5b0141;}.cls-235{fill:#660247;}.cls-236{fill:#fa5eca;}.cls-237{fill:#920162;}.cls-238{fill:#eff6ff;}.cls-239{fill:#8eabfb;}.cls-240{fill:#885ad7;}.cls-241{fill:#802eb4;}.cls-242{fill:#240d32;}.cls-243{fill:#190b24;}.cls-244{fill:#020203;}.cls-245{fill:#140a1e;}.cls-246{fill:#33174c;}.cls-247{fill:#27123a;}.cls-248{fill:#250f35;}.cls-249{fill:#240e33;}.cls-250{fill:#1c0c29;}.cls-251{fill:#170920;}.cls-252{fill:#16081f;}.cls-253{fill:#2d0c38;}.cls-254{fill:#110514;}.cls-255{fill:#1f0623;}.cls-256{fill:#2e0631;}.cls-257{fill:#020103;}.cls-258{fill:#2f0937;}.cls-259{fill:#470f56;}.cls-260{fill:#320d3f;}.cls-261{fill:#361047;}.cls-262{fill:#551c75;}.cls-263{fill:#a19af9;}.cls-264{fill:#ceceff;}.cls-265{fill:#bebafe;}.cls-266{fill:#bfb8fe;}.cls-267{fill:#bda3fd;}.cls-268{fill:#bb8cf9;}.cls-269{fill:#d8c5fe;}.cls-270{fill:#c5abfe;}.cls-271{fill:#c5a7fd;}.cls-272{fill:#bc83f6;}.cls-273{fill:#b036d6;}.cls-274{fill:#ab24c7;}.cls-275{fill:#e0cafd;}.cls-276{fill:#160419;}.cls-277{fill:#3e0844;}.cls-278{fill:#440c50;}.cls-279{fill:#690e78;}.cls-280{fill:#5f1172;}.cls-281{fill:#310839;}.cls-282{fill:#4b0f5b;}.cls-283{fill:#501062;}.cls-284{fill:#681582;}.cls-285{fill:#23092d;}.cls-286{fill:#2b0b38;}.cls-287{fill:#8924b6;}.cls-288{fill:#ece8ff;}.cls-289{fill:#f5f3ff;}.cls-290{fill:#bdb6ff;}.cls-291{fill:#cac7ff;}.cls-292{fill:#fbfaff;}.cls-293{fill:#dcd9ff;}.cls-294{fill:#e0deff;}.cls-295{fill:#d8d8ff;}.cls-296{fill:#ecedff;}.cls-297{fill:#f7f7ff;}.cls-298{fill:#f3f4ff;}.cls-299{fill:#dbe0ff;}.cls-300{fill:#a07df0;}.cls-301{fill:#7526a1;}.cls-302{fill:#6c2597;}.cls-303{fill:#6e279b;}.cls-304{fill:#b8c6ff;}.cls-305{fill:#999cf9;}.cls-306{fill:#bacaff;}.cls-307{fill:#dee4ff;}.cls-308{fill:#e5e8ff;}.cls-309{fill:#cdceff;}.cls-310{fill:#ebebff;}.cls-311{fill:#c6c7ff;}.cls-312{fill:#d8e0ff;}.cls-313{fill:#c6d3ff;}.cls-314{fill:#9ea4fc;}.cls-315{fill:#9f8df5;}.cls-316{fill:#9d51de;}.cls-317{fill:#f3efff;}.cls-318{fill:#f9f6ff;}.cls-319{fill:#f7f2ff;}.cls-320{fill:#a129cb;}.cls-321{fill:#bb98fe;}.cls-322{fill:#8d20b5;}.cls-323{fill:#a23dd6;}.cls-324{fill:#a993f9;}.cls-325{fill:#8e3ac7;}.cls-326{fill:#38063c;}.cls-327{fill:#47074d;}.cls-328{fill:#240425;}.cls-329{fill:#170217;}.cls-330{fill:#a80599;}.cls-331{fill:#9c0691;}.cls-332{fill:#2b0125;}.cls-333{fill:#400442;}.cls-334{fill:#49054c;}.cls-335{fill:#38053b;}.cls-336{fill:#d76ff7;}.cls-337{fill:#47084f;}.cls-338{fill:#1f0524;}.cls-339{fill:#28062f;}.cls-340{fill:#400b4d;}.cls-341{fill:#290833;}.cls-342{fill:#710a7c;}.cls-343{fill:#b210c8;}.cls-344{fill:#d086fc;}.cls-345{fill:#c653f2;}.cls-346{fill:#af31d9;}.cls-347{fill:#e067f8;}.cls-348{fill:#de5df7;}.cls-349{fill:#d984fd;}.cls-350{fill:#eee3fe;}.cls-351{fill:#f5f0ff;}.cls-352{fill:#09030c;}.cls-353{fill:#a526c9;}.cls-354{fill:#f3ecff;}.cls-355{fill:#040205;}.cls-356{fill:#4b1462;}</style></defs><polygon class="cls-1" points="297.94 339.14 266.07 324.62 276.04 362.34 297.94 339.14"/><polygon class="cls-2" points="290.35 323.32 266.07 324.62 297.94 339.14 290.35 323.32"/><polygon class="cls-3" points="289.05 299.69 266.07 324.62 290.35 323.32 289.05 299.69"/><polygon class="cls-4" points="261.04 282.77 266.07 324.62 289.05 299.69 261.04 282.77"/><polygon class="cls-5" points="290.35 263.26 261.04 282.77 289.05 299.69 290.35 263.26"/><polygon class="cls-6" points="268.19 247.65 261.04 282.77 290.35 263.26 268.19 247.65"/><polygon class="cls-7" points="231.53 266.52 261.04 282.77 268.19 247.65 231.53 266.52"/><polygon class="cls-8" points="226.76 320.86 261.04 282.77 231.53 266.52 226.76 320.86"/><polygon class="cls-9" points="226.76 320.86 266.07 324.62 261.04 282.77 226.76 320.86"/><polygon class="cls-10" points="266.07 324.62 226.76 320.86 276.04 362.34 266.07 324.62"/><polygon class="cls-11" points="226.76 320.86 251.4 369.71 276.04 362.34 226.76 320.86"/><polygon class="cls-12" points="226.76 320.86 235.07 389.22 251.4 369.71 226.76 320.86"/><polygon class="cls-13" points="226.76 320.86 212.09 363.64 235.07 389.22 226.76 320.86"/><polygon class="cls-14" points="180.87 355.04 212.09 363.64 226.76 320.86 180.87 355.04"/><polygon class="cls-15" points="180.87 355.04 226.76 320.86 151.08 316.77 180.87 355.04"/><polygon class="cls-16" points="226.76 320.86 231.53 266.52 151.08 316.77 226.76 320.86"/><polygon class="cls-17" points="151.08 316.77 231.53 266.52 143.09 257.33 151.08 316.77"/><polygon class="cls-18" points="151.08 316.77 143.09 257.33 123.39 292.55 151.08 316.77"/><polygon class="cls-19" points="145.94 377.9 121.08 360.17 116.3 389.16 145.94 377.9"/><polygon class="cls-20" points="100.98 365.86 85.78 367.96 94.48 383.48 100.98 365.86"/><polygon class="cls-21" points="171.43 353.69 146.58 333.27 138.82 348.97 171.43 353.69"/><polygon class="cls-22" points="143.09 257.33 118 254.7 123.39 292.55 143.09 257.33"/><polygon class="cls-23" points="143.09 257.33 134.69 194.62 118 254.7 143.09 257.33"/><polygon class="cls-24" points="134.69 194.62 99.13 223.59 118 254.7 134.69 194.62"/><polygon class="cls-25" points="134.69 194.62 89.05 178.01 99.13 223.59 134.69 194.62"/><polygon class="cls-26" points="134.69 194.62 134.51 127.33 89.05 178.01 134.69 194.62"/><polygon class="cls-27" points="134.69 194.62 175.74 129.25 134.51 127.33 134.69 194.62"/><polygon class="cls-28" points="134.51 127.33 175.74 129.25 150.29 78.33 134.51 127.33"/><polygon class="cls-29" points="134.51 127.33 142.06 61.85 150.29 78.33 134.51 127.33"/><polygon class="cls-30" points="134.51 127.33 100.65 81.37 142.06 61.85 134.51 127.33"/><polygon class="cls-31" points="130.75 43.45 100.65 81.37 142.06 61.85 130.75 43.45"/><polygon class="cls-32" points="130.75 43.45 178.92 18.71 142.06 61.85 130.75 43.45"/><polygon class="cls-33" points="217.07 42.56 178.92 18.71 142.06 61.85 217.07 42.56"/><polygon class="cls-34" points="217.07 42.56 178.92 110.84 150.29 78.33 217.07 42.56"/><polygon class="cls-35" points="217.07 42.56 142.06 61.85 150.29 78.33 217.07 42.56"/><polygon class="cls-36" points="217.07 42.56 178.92 110.84 213.6 82.96 217.07 42.56"/><polygon class="cls-37" points="217.07 42.56 270.3 55.35 213.6 82.96 217.07 42.56"/><polygon class="cls-38" points="253.06 91.1 270.3 55.35 213.6 82.96 253.06 91.1"/><polygon class="cls-39" points="253.06 91.1 270.3 55.35 285.89 65.76 253.06 91.1"/><polygon class="cls-40" points="294.9 25.65 270.3 55.35 285.89 65.76 294.9 25.65"/><polygon class="cls-41" points="294.9 25.65 322.87 55.35 285.89 65.76 294.9 25.65"/><polygon class="cls-42" points="294.9 25.65 322.87 55.35 319.84 11.33 294.9 25.65"/><polygon class="cls-43" points="294.9 25.65 282.66 0 319.84 11.33 294.9 25.65"/><polygon class="cls-44" points="351.49 28.47 322.87 55.35 319.84 11.33 351.49 28.47"/><polygon class="cls-45" points="351.49 28.47 322.87 55.35 373.6 51.67 351.49 28.47"/><polygon class="cls-46" points="359.58 69.08 322.87 55.35 373.6 51.67 359.58 69.08"/><polygon class="cls-47" points="359.58 69.08 382.6 82.96 373.6 51.67 359.58 69.08"/><polygon class="cls-48" points="386.83 59.42 382.6 82.96 373.6 51.67 386.83 59.42"/><polygon class="cls-49" points="217.07 42.56 270.3 55.35 253.06 14.38 217.07 42.56"/><polygon class="cls-50" points="217.07 42.56 178.92 18.71 253.06 14.38 217.07 42.56"/><polygon class="cls-51" points="230.51 0 178.92 18.71 253.06 14.38 230.51 0"/><polygon class="cls-52" points="294.9 25.65 270.3 55.35 253.06 14.38 294.9 25.65"/><polygon class="cls-53" points="294.9 25.65 282.66 0 253.06 14.38 294.9 25.65"/><polygon class="cls-54" points="230.51 0 282.66 0 253.06 14.38 230.51 0"/><polygon class="cls-55" points="134.51 127.33 100.65 81.37 91.47 141.06 134.51 127.33"/><polygon class="cls-56" points="134.51 127.33 89.05 178.01 91.47 141.06 134.51 127.33"/><polygon class="cls-57" points="59.89 131.19 100.65 81.37 91.47 141.06 59.89 131.19"/><polygon class="cls-58" points="175.74 129.25 178.92 110.84 150.29 78.33 175.74 129.25"/><polygon class="cls-59" points="175.74 129.25 212.09 133.83 178.92 110.84 175.74 129.25"/><polygon class="cls-60" points="178.92 110.84 212.09 133.83 213.6 82.96 178.92 110.84"/><polygon class="cls-61" points="143.09 257.33 192.29 196.05 134.69 194.62 143.09 257.33"/><polygon class="cls-62" points="231.53 266.52 192.29 196.05 143.09 257.33 231.53 266.52"/><polygon class="cls-63" points="245.98 222.76 192.29 196.05 231.53 266.52 245.98 222.76"/><polygon class="cls-64" points="243.81 176.62 192.29 196.05 245.98 222.76 243.81 176.62"/><polygon class="cls-65" points="212.09 133.83 192.29 196.05 243.81 176.62 212.09 133.83"/><polygon class="cls-66" points="175.74 129.25 192.29 196.05 212.09 133.83 175.74 129.25"/><polygon class="cls-67" points="192.29 196.05 175.74 129.25 134.69 194.62 192.29 196.05"/><polygon class="cls-68" points="245.69 131.19 212.09 133.83 243.81 176.62 245.69 131.19"/><polygon class="cls-69" points="213.6 82.96 212.09 133.83 245.69 131.19 213.6 82.96"/><polygon class="cls-70" points="253.06 91.1 213.6 82.96 245.69 131.19 253.06 91.1"/><polygon class="cls-71" points="123.39 292.55 118 254.7 103.04 303.69 123.39 292.55"/><polygon class="cls-72" points="56.64 303.76 90.12 285.29 60.09 270.35 56.64 303.76"/><polygon class="cls-73" points="62.27 322.34 90.99 301.96 90.17 317.83 62.27 322.34"/><polygon class="cls-74" points="24.33 334.86 45.88 327.99 35.17 323.8 24.33 334.86"/><polygon class="cls-75" points="29.09 298.29 45.83 292.55 42.77 277.52 29.09 298.29"/><polygon class="cls-76" points="57.59 236.79 89.17 242.4 61.04 213.88 57.59 236.79"/><polygon class="cls-77" points="81.23 198.25 91.47 219.01 59.89 198.64 81.23 198.25"/><polygon class="cls-78" points="81.64 180.53 83.6 165.34 57.59 190.67 81.64 180.53"/><polygon class="cls-79" points="34.43 199.96 52.09 206.34 16.78 207.93 34.43 199.96"/><polygon class="cls-80" points="66.86 252.68 100.35 256.3 89.37 268.93 66.86 252.68"/><polygon class="cls-81" points="33.51 267.71 9.02 266.19 36.65 255.5 33.51 267.71"/><polygon class="cls-82" points="39.3 190.67 71.81 156.35 39.3 176.62 39.3 190.67"/><polygon class="cls-83" points="58.09 157.06 62.07 139.19 22.83 155.42 58.09 157.06"/><polygon class="cls-84" points="31.96 245.77 47.85 221.17 33.59 221.03 31.96 245.77"/><polygon class="cls-85" points="13.62 249.11 12.68 235.69 0.97 240.92 13.62 249.11"/><polygon class="cls-86" points="81.71 339.86 103.04 339.86 68.16 368.74 81.71 339.86"/><polygon class="cls-87" points="104.87 325.02 127.36 325.02 131.12 353.26 104.87 325.02"/><polygon class="cls-88" points="107.41 315.65 135.36 316.35 124.24 307.52 107.41 315.65"/><polygon class="cls-89" points="63.27 333.7 65 343.43 45.83 357.7 63.27 333.7"/><polygon class="cls-90" points="16.89 320.86 23.34 314.66 7.3 314.66 16.89 320.86"/><polygon class="cls-91" points="7.79 280.87 24.33 283.28 0 295.21 7.79 280.87"/><polygon class="cls-92" points="180.87 355.04 199.94 387.92 212.09 363.64 180.87 355.04"/><polygon class="cls-93" points="148.62 365.43 164.74 385.1 180.87 376.87 148.62 365.43"/><polygon class="cls-94" points="231.53 266.52 268.19 247.65 245.98 222.76 231.53 266.52"/><polygon class="cls-95" points="303.58 230.31 268.19 247.65 290.35 263.26 303.58 230.31"/><polygon class="cls-96" points="278.21 208.63 268.19 247.65 303.58 230.31 278.21 208.63"/><polygon class="cls-97" points="278.21 208.63 303.58 230.31 328.51 199.96 278.21 208.63"/><polygon class="cls-98" points="328.51 199.96 267.02 165.05 278.21 208.63 328.51 199.96"/><polygon class="cls-99" points="316.25 136.84 267.02 165.05 328.51 199.96 316.25 136.84"/><polygon class="cls-100" points="316.25 136.84 328.51 199.96 348.24 142.94 316.25 136.84"/><polygon class="cls-101" points="348.24 142.94 328.51 199.96 369.27 193.89 348.24 142.94"/><polygon class="cls-102" points="348.24 142.94 369.27 193.89 387.69 142.94 348.24 142.94"/><polygon class="cls-103" points="369.27 193.89 395.94 156.81 387.69 142.94 369.27 193.89"/><polygon class="cls-104" points="369.27 193.89 390.08 201.47 395.94 156.81 369.27 193.89"/><polygon class="cls-105" points="390.08 201.47 412.84 169.82 395.94 156.81 390.08 201.47"/><polygon class="cls-106" points="390.08 201.47 415.01 199.96 412.84 169.82 390.08 201.47"/><polygon class="cls-107" points="412.84 169.82 415.01 199.96 423.68 183.48 412.84 169.82"/><polygon class="cls-108" points="412.84 169.82 423.68 183.48 427.8 159.85 412.84 169.82"/><polygon class="cls-109" points="427.8 159.85 423.68 183.48 444.93 152.91 427.8 159.85"/><polygon class="cls-110" points="423.68 183.48 437.56 171.66 444.93 152.91 423.68 183.48"/><polygon class="cls-111" points="444.93 152.91 437.56 171.66 446.45 168.41 444.93 152.91"/><polygon class="cls-112" points="446.45 168.41 437.56 171.66 449.27 184.89 446.45 168.41"/><polygon class="cls-113" points="437.56 171.66 427.1 187.76 449.27 184.89 437.56 171.66"/><polygon class="cls-114" points="427.1 187.76 427.8 201.47 449.27 184.89 427.1 187.76"/><polygon class="cls-115" points="415.01 199.96 427.8 201.47 427.1 187.76 415.01 199.96"/><polygon class="cls-116" points="415.01 199.96 417.83 204.46 427.8 201.47 415.01 199.96"/><polygon class="cls-117" points="417.83 204.46 423.95 206.24 427.8 201.47 417.83 204.46"/><polygon class="cls-118" points="423.31 211.56 427.8 201.47 423.95 206.24 423.31 211.56"/><polygon class="cls-119" points="420.7 211.56 423.31 211.56 423.95 206.24 420.7 211.56"/><polygon class="cls-120" points="418.59 209.28 420.7 211.56 423.95 206.24 418.59 209.28"/><polygon class="cls-121" points="417.83 204.46 418.59 209.28 423.95 206.24 417.83 204.46"/><polygon class="cls-122" points="414.42 209.77 418.59 209.28 417.83 204.46 414.42 209.77"/><polygon class="cls-123" points="409.1 208.9 414.42 209.77 417.83 204.46 409.1 208.9"/><polygon class="cls-124" points="409.1 208.9 417.83 204.46 415.01 199.96 409.1 208.9"/><polygon class="cls-125" points="406.69 200.46 409.1 208.9 415.01 199.96 406.69 200.46"/><polygon class="cls-126" points="404.31 210.17 409.1 208.9 406.69 200.46 404.31 210.17"/><polygon class="cls-127" points="399.05 207.87 404.31 210.17 406.69 200.46 399.05 207.87"/><polygon class="cls-128" points="399.05 207.87 406.69 200.46 399.62 200.89 399.05 207.87"/><polygon class="cls-129" points="390.08 201.47 399.05 207.87 399.62 200.89 390.08 201.47"/><polygon class="cls-130" points="387.51 210.17 399.05 207.87 390.08 201.47 387.51 210.17"/><polygon class="cls-131" points="371.47 201.84 387.51 210.17 390.08 201.47 371.47 201.84"/><polygon class="cls-132" points="371.47 201.84 372.99 222.76 387.51 210.17 371.47 201.84"/><polygon class="cls-133" points="372.99 222.76 380.18 230.24 387.51 210.17 372.99 222.76"/><polygon class="cls-134" points="372.99 222.76 376.2 238.47 380.18 230.24 372.99 222.76"/><polygon class="cls-135" points="372.63 237.68 376.2 238.47 372.99 222.76 372.63 237.68"/><polygon class="cls-136" points="369.27 193.89 371.47 201.84 390.08 201.47 369.27 193.89"/><polygon class="cls-137" points="369.27 193.89 328.51 199.96 371.47 201.84 369.27 193.89"/><polygon class="cls-138" points="414.42 209.77 415.66 211.07 418.59 209.28 414.42 209.77"/><polygon class="cls-139" points="420.7 211.56 415.66 211.07 418.59 209.28 420.7 211.56"/><polygon class="cls-140" points="420.7 211.56 415.66 211.07 418.59 220.48 420.7 211.56"/><polygon class="cls-141" points="403.63 227.13 415.66 211.07 418.59 220.48 403.63 227.13"/><polygon class="cls-142" points="403.63 227.13 417.83 237.52 418.59 220.48 403.63 227.13"/><polygon class="cls-143" points="403.63 227.13 415.66 211.07 404.31 210.17 403.63 227.13"/><polygon class="cls-143" points="403.63 227.13 380.18 230.24 404.31 210.17 403.63 227.13"/><polygon class="cls-144" points="387.51 210.17 380.18 230.24 404.31 210.17 387.51 210.17"/><polygon class="cls-145" points="420.7 211.56 430.33 218.31 418.59 220.48 420.7 211.56"/><polygon class="cls-146" points="417.83 237.52 430.33 218.31 418.59 220.48 417.83 237.52"/><polygon class="cls-147" points="417.83 237.52 430.33 218.31 423.95 237.32 417.83 237.52"/><polygon class="cls-148" points="417.83 237.52 421.41 241.17 423.95 237.32 417.83 237.52"/><polygon class="cls-149" points="420.7 211.56 430.33 218.31 426.67 211.56 420.7 211.56"/><polygon class="cls-150" points="423.31 211.56 426.67 211.56 427.8 201.47 423.31 211.56"/><polygon class="cls-151" points="426.67 211.56 431.71 212.31 427.8 201.47 426.67 211.56"/><polygon class="cls-152" points="426.67 211.56 430.33 218.31 431.71 212.31 426.67 211.56"/><polygon class="cls-153" points="415.01 199.96 427.1 187.76 423.68 183.48 415.01 199.96"/><polygon class="cls-154" points="423.68 183.48 427.1 187.76 437.56 171.66 423.68 183.48"/><polygon class="cls-155" points="449.27 184.89 427.8 201.47 444.43 207.87 449.27 184.89"/><polygon class="cls-156" points="427.8 201.47 431.71 212.31 444.43 207.87 427.8 201.47"/><polygon class="cls-157" points="423.68 149.01 427.8 159.85 444.93 152.91 423.68 149.01"/><polygon class="cls-158" points="437.56 141.06 423.68 149.01 444.93 152.91 437.56 141.06"/><polygon class="cls-159" points="420.32 128.31 423.68 149.01 437.56 141.06 420.32 128.31"/><polygon class="cls-160" points="408.94 144.89 423.68 149.01 420.32 128.31 408.94 144.89"/><polygon class="cls-161" points="391.23 117.5 408.94 144.89 420.32 128.31 391.23 117.5"/><polygon class="cls-162" points="387.69 142.94 408.94 144.89 391.23 117.5 387.69 142.94"/><polygon class="cls-163" points="354.38 121.98 387.69 142.94 391.23 117.5 354.38 121.98"/><polygon class="cls-164" points="354.38 121.98 391.23 117.5 373.46 101.31 354.38 121.98"/><polygon class="cls-165" points="373.46 101.31 391.23 117.5 400.2 100.01 373.46 101.31"/><polygon class="cls-166" points="373.46 101.31 400.2 100.01 382.6 82.96 373.46 101.31"/><polygon class="cls-167" points="359.58 69.08 373.46 101.31 382.6 82.96 359.58 69.08"/><polygon class="cls-168" points="359.58 69.08 337.18 80.93 373.46 101.31 359.58 69.08"/><polygon class="cls-169" points="373.46 101.31 337.18 80.93 340.65 105.5 373.46 101.31"/><polygon class="cls-170" points="340.65 105.5 344.12 113.89 373.46 101.31 340.65 105.5"/><polygon class="cls-171" points="344.12 113.89 354.38 121.98 373.46 101.31 344.12 113.89"/><polygon class="cls-172" points="344.12 113.89 335.09 117.03 354.38 121.98 344.12 113.89"/><polygon class="cls-173" points="335.09 117.03 329.56 122.23 354.38 121.98 335.09 117.03"/><polygon class="cls-174" points="329.06 118.93 329.56 122.23 335.09 117.03 329.06 118.93"/><polygon class="cls-175" points="320.19 121.58 329.56 122.23 329.06 118.93 320.19 121.58"/><polygon class="cls-176" points="320.19 121.58 329.06 118.93 321.57 119.58 320.19 121.58"/><polygon class="cls-177" points="318.28 112.49 320.19 121.58 321.57 119.58 318.28 112.49"/><polygon class="cls-178" points="318.28 112.49 321.57 119.58 326.31 114.56 318.28 112.49"/><polygon class="cls-179" points="318.28 112.49 326.31 114.56 324.86 111.42 318.28 112.49"/><polygon class="cls-180" points="324.86 111.42 326.31 114.56 328.51 111.42 324.86 111.42"/><polygon class="cls-174" points="326.31 114.56 329.52 114.48 328.51 111.42 326.31 114.56"/><polygon class="cls-181" points="328.51 111.42 329.52 114.48 330.11 111.8 328.51 111.42"/><polygon class="cls-182" points="329.52 114.48 335.09 117.03 330.11 111.8 329.52 114.48"/><polygon class="cls-183" points="330.11 111.8 335.09 117.03 334.63 110.83 330.11 111.8"/><polygon class="cls-184" points="334.63 110.83 335.09 117.03 344.12 113.89 334.63 110.83"/><polygon class="cls-184" points="334.63 110.83 338.65 112.12 337.86 107.6 334.63 110.83"/><polygon class="cls-185" points="332.31 107.6 334.63 110.83 337.86 107.6 332.31 107.6"/><polygon class="cls-186" points="332.31 107.6 337.86 107.6 340.65 105.5 332.31 107.6"/><polygon class="cls-187" points="330.11 111.8 334.63 110.83 332.31 107.6 330.11 111.8"/><polygon class="cls-188" points="328.51 111.42 330.11 111.8 332.31 107.6 328.51 111.42"/><polygon class="cls-189" points="324.86 111.42 328.51 111.42 332.31 107.6 324.86 111.42"/><polygon class="cls-190" points="337.86 107.6 338.65 112.12 340.65 105.5 337.86 107.6"/><polygon class="cls-191" points="340.65 105.5 338.65 112.12 344.12 113.89 340.65 105.5"/><polygon class="cls-192" points="329.06 118.93 335.09 117.03 329.52 114.48 329.06 118.93"/><polygon class="cls-193" points="321.57 119.58 329.06 118.93 326.31 114.56 321.57 119.58"/><polygon class="cls-194" points="326.31 114.56 329.06 118.93 329.52 114.48 326.31 114.56"/><polygon class="cls-195" points="313.51 117.03 320.19 121.58 318.28 112.49 313.51 117.03"/><polygon class="cls-196" points="313.51 117.03 318.28 112.49 316.25 110.8 313.51 117.03"/><polygon class="cls-197" points="306.94 117.28 313.51 117.03 316.25 110.8 306.94 117.28"/><polygon class="cls-198" points="306.94 117.28 316.25 136.84 313.51 117.03 306.94 117.28"/><polygon class="cls-199" points="306.94 117.28 316.25 136.84 306.94 117.28 306.94 117.28"/><polygon class="cls-200" points="316.25 136.84 306.94 117.28 300.81 116.44 316.25 136.84"/><polygon class="cls-201" points="300.81 116.44 270.3 133.83 316.25 136.84 300.81 116.44"/><polygon class="cls-202" points="270.3 133.83 267.02 165.05 316.25 136.84 270.3 133.83"/><polygon class="cls-203" points="316.25 136.84 320.19 121.58 313.51 117.03 316.25 136.84"/><polygon class="cls-204" points="316.25 136.84 329.56 122.23 320.19 121.58 316.25 136.84"/><polygon class="cls-205" points="316.25 110.8 318.28 112.49 324.86 111.42 316.25 110.8"/><polygon class="cls-206" points="316.25 110.8 324.86 111.42 331.87 103.16 316.25 110.8"/><polygon class="cls-207" points="316.25 110.8 331.87 103.16 317.7 104.4 316.25 110.8"/><polygon class="cls-208" points="306.94 117.28 316.25 110.8 317.7 104.4 306.94 117.28"/><polygon class="cls-209" points="300.81 116.44 306.94 117.28 317.7 104.4 300.81 116.44"/><polygon class="cls-210" points="317.7 104.4 331.87 103.16 337.18 80.93 317.7 104.4"/><polygon class="cls-211" points="324.86 111.42 332.31 107.6 331.87 103.16 324.86 111.42"/><polygon class="cls-212" points="331.87 103.16 332.31 107.6 340.65 105.5 331.87 103.16"/><polygon class="cls-213" points="337.18 80.93 331.87 103.16 340.65 105.5 337.18 80.93"/><polygon class="cls-214" points="322.87 55.35 337.18 80.93 359.58 69.08 322.87 55.35"/><polygon class="cls-215" points="285.89 65.76 337.18 80.93 322.87 55.35 285.89 65.76"/><polygon class="cls-216" points="285.89 65.76 317.7 104.4 337.18 80.93 285.89 65.76"/><polygon class="cls-217" points="285.89 65.76 300.81 116.44 317.7 104.4 285.89 65.76"/><polygon class="cls-218" points="285.89 65.76 253.06 91.1 300.81 116.44 285.89 65.76"/><polyline class="cls-219" points="284.85 107.96 253.06 91.1 270.3 133.83 300.81 116.44 284.85 107.96"/><polygon class="cls-220" points="245.69 131.19 270.3 133.83 253.06 91.1 245.69 131.19"/><polygon class="cls-221" points="245.69 131.19 267.02 165.05 270.3 133.83 245.69 131.19"/><polygon class="cls-222" points="243.81 176.62 267.02 165.05 245.69 131.19 243.81 176.62"/><polygon class="cls-223" points="267.02 165.05 243.81 176.62 278.21 208.63 267.02 165.05"/><polygon class="cls-224" points="243.81 176.62 245.98 222.76 278.21 208.63 243.81 176.62"/><polygon class="cls-225" points="245.98 222.76 268.19 247.65 278.21 208.63 245.98 222.76"/><polygon class="cls-226" points="391.23 117.5 407.57 116.63 400.2 100.01 391.23 117.5"/><polygon class="cls-227" points="407.57 103.59 407.57 116.63 400.2 100.01 407.57 103.59"/><polygon class="cls-228" points="391.23 117.5 420.32 128.31 407.57 116.63 391.23 117.5"/><polygon class="cls-229" points="348.24 142.94 387.69 142.94 354.38 121.98 348.24 142.94"/><polygon class="cls-230" points="354.38 121.98 329.56 122.23 348.24 142.94 354.38 121.98"/><polygon class="cls-231" points="329.56 122.23 316.25 136.84 348.24 142.94 329.56 122.23"/><polygon class="cls-232" points="405.91 150.53 427.8 159.85 423.68 149.01 405.91 150.53"/><polygon class="cls-233" points="405.91 150.53 412.84 169.82 427.8 159.85 405.91 150.53"/><polygon class="cls-234" points="395.94 156.81 412.84 169.82 405.91 150.53 395.94 156.81"/><polygon class="cls-235" points="387.69 142.94 395.94 156.81 405.91 150.53 387.69 142.94"/><polygon class="cls-236" points="387.69 142.94 405.91 150.53 408.94 144.89 387.69 142.94"/><polygon class="cls-237" points="405.91 150.53 423.68 149.01 408.94 144.89 405.91 150.53"/><polygon class="cls-238" points="276.04 362.34 300.11 367.33 297.94 339.14 276.04 362.34"/><polygon class="cls-239" points="297.94 339.14 300.11 367.33 317.24 354.32 297.94 339.14"/><polygon class="cls-240" points="300.11 367.33 327.53 368.74 317.24 354.32 300.11 367.33"/><polygon class="cls-241" points="317.24 354.32 327.53 368.74 341.95 351.61 317.24 354.32"/><polygon class="cls-242" points="326.67 337.08 317.24 354.32 341.95 351.61 326.67 337.08"/><polygon class="cls-243" points="297.94 339.14 317.24 354.32 326.67 337.08 297.94 339.14"/><polygon class="cls-244" points="297.94 339.14 326.67 337.08 310.3 327.87 297.94 339.14"/><polygon class="cls-245" points="290.35 323.32 297.94 339.14 310.3 327.87 290.35 323.32"/><polygon class="cls-246" points="290.35 323.32 310.3 327.87 308.78 315.94 290.35 323.32"/><polygon class="cls-247" points="289.05 299.69 290.35 323.32 308.78 315.94 289.05 299.69"/><polygon class="cls-248" points="289.05 299.69 308.78 315.94 320.16 307.92 289.05 299.69"/><polygon class="cls-249" points="289.05 299.69 320.16 307.92 308.78 291.77 289.05 299.69"/><polygon class="cls-250" points="289.05 299.69 308.78 291.77 290.35 263.26 289.05 299.69"/><polygon class="cls-251" points="290.35 263.26 308.78 291.77 304.61 271.39 290.35 263.26"/><polygon class="cls-252" points="290.35 263.26 304.61 271.39 310.95 232.15 290.35 263.26"/><polygon class="cls-253" points="290.35 263.26 310.95 232.15 303.58 230.31 290.35 263.26"/><polygon class="cls-254" points="303.58 230.31 310.95 232.15 328.51 199.96 303.58 230.31"/><polygon class="cls-255" points="328.51 199.96 310.95 232.15 341.52 233.78 328.51 199.96"/><polygon class="cls-256" points="371.47 201.84 328.51 199.96 341.52 233.78 371.47 201.84"/><polygon class="cls-143" points="341.52 233.78 372.99 222.76 371.47 201.84 341.52 233.78"/><polygon class="cls-257" points="341.52 233.78 372.63 237.68 372.99 222.76 341.52 233.78"/><polygon class="cls-257" points="341.52 233.78 351.06 246.14 372.63 237.68 341.52 233.78"/><polygon class="cls-257" points="341.52 245.49 351.06 246.14 341.52 233.78 341.52 245.49"/><polygon class="cls-258" points="341.52 233.78 310.95 232.15 341.52 245.49 341.52 233.78"/><polygon class="cls-259" points="310.95 232.15 328.51 256.9 341.52 245.49 310.95 232.15"/><polygon class="cls-260" points="304.61 271.39 328.51 256.9 310.95 232.15 304.61 271.39"/><polygon class="cls-261" points="304.61 271.39 316.04 284.22 328.51 256.9 304.61 271.39"/><polygon class="cls-262" points="304.61 271.39 308.78 291.77 316.04 284.22 304.61 271.39"/><polygon class="cls-263" points="308.78 291.77 320.16 307.92 316.04 284.22 308.78 291.77"/><polygon class="cls-264" points="316.04 284.22 320.16 307.92 334.36 298.82 316.04 284.22"/><polygon class="cls-265" points="316.04 284.22 334.36 298.82 342.38 283.35 316.04 284.22"/><polygon class="cls-266" points="328.51 256.9 316.04 284.22 342.38 283.35 328.51 256.9"/><polygon class="cls-267" points="342.02 271.39 328.51 256.9 342.38 283.35 342.02 271.39"/><polygon class="cls-268" points="342.02 271.39 342.38 283.35 345.53 273.16 342.02 271.39"/><polygon class="cls-269" points="342.02 271.39 345.53 273.16 344.99 268.03 342.02 271.39"/><polygon class="cls-270" points="344.99 268.03 328.51 256.9 342.02 271.39 344.99 268.03"/><polygon class="cls-271" points="343.77 260.81 328.51 256.9 344.99 268.03 343.77 260.81"/><polygon class="cls-272" points="341.52 253.87 328.51 256.9 343.77 260.81 341.52 253.87"/><polygon class="cls-273" points="341.52 245.49 328.51 256.9 341.52 253.87 341.52 245.49"/><polygon class="cls-274" points="341.52 253.87 351.06 246.14 341.52 245.49 341.52 253.87"/><polygon class="cls-275" points="341.52 253.87 348.16 255.24 351.06 246.14 341.52 253.87"/><polygon class="cls-276" points="348.16 255.24 372.63 237.68 351.06 246.14 348.16 255.24"/><polygon class="cls-277" points="348.16 255.24 374.83 262.46 372.63 237.68 348.16 255.24"/><polygon class="cls-278" points="348.16 261.17 374.83 262.46 348.16 255.24 348.16 261.17"/><polygon class="cls-279" points="348.16 261.17 368.69 275.26 374.83 262.46 348.16 261.17"/><polygon class="cls-280" points="347.66 269.19 368.69 275.26 348.16 261.17 347.66 269.19"/><polygon class="cls-281" points="347.66 269.19 361.5 289.39 368.69 275.26 347.66 269.19"/><polygon class="cls-282" points="345.53 273.16 361.5 289.39 347.66 269.19 345.53 273.16"/><polygon class="cls-283" points="342.38 283.35 361.5 289.39 345.53 273.16 342.38 283.35"/><polygon class="cls-284" points="342.38 283.35 352.82 316.77 361.5 289.39 342.38 283.35"/><polygon class="cls-285" points="342.38 283.35 334.36 298.82 352.82 316.77 342.38 283.35"/><polygon class="cls-286" points="334.36 298.82 334.36 313.13 352.82 316.77 334.36 298.82"/><polygon class="cls-287" points="352.82 316.77 334.36 313.13 340.98 316.77 352.82 316.77"/><polygon class="cls-288" points="340.98 316.77 350.3 328.95 352.82 316.77 340.98 316.77"/><polygon class="cls-289" points="340.98 316.77 342.38 326.64 350.3 328.95 340.98 316.77"/><polygon class="cls-290" points="341.25 330.31 350.3 328.95 342.38 326.64 341.25 330.31"/><polygon class="cls-291" points="342.38 326.64 337.76 329.68 341.25 330.31 342.38 326.64"/><polygon class="cls-292" points="338.05 324.62 337.76 329.68 342.38 326.64 338.05 324.62"/><polygon class="cls-293" points="340.98 316.77 338.05 324.62 342.38 326.64 340.98 316.77"/><polygon class="cls-294" points="334.36 313.13 338.05 324.62 340.98 316.77 334.36 313.13"/><polygon class="cls-295" points="330.89 324.62 338.05 324.62 334.36 313.13 330.89 324.62"/><polygon class="cls-296" points="330.89 324.62 337.76 329.68 338.05 324.62 330.89 324.62"/><polygon class="cls-297" points="329.21 327.87 337.76 329.68 330.89 324.62 329.21 327.87"/><polygon class="cls-298" points="324.24 323.32 329.21 327.87 330.89 324.62 324.24 323.32"/><polygon class="cls-297" points="322.29 327.51 329.21 327.87 324.24 323.32 322.29 327.51"/><polygon class="cls-299" points="321.35 323.32 322.29 327.51 324.24 323.32 321.35 323.32"/><polygon class="cls-300" points="321.35 323.32 324.24 323.32 322.81 312.31 321.35 323.32"/><polygon class="cls-301" points="322.81 312.31 324.24 323.32 330.89 324.62 322.81 312.31"/><polygon class="cls-302" points="314.2 327.15 321.35 323.32 322.81 312.31 314.2 327.15"/><polygon class="cls-303" points="314.2 327.15 322.29 327.51 321.35 323.32 314.2 327.15"/><polygon class="cls-304" points="314.2 327.15 318.25 332.34 322.29 327.51 314.2 327.15"/><polygon class="cls-305" points="310.3 327.87 318.25 332.34 314.2 327.15 310.3 327.87"/><polygon class="cls-306" points="310.3 327.87 314.2 327.15 313.26 315.94 310.3 327.87"/><polygon class="cls-307" points="313.26 315.94 314.2 327.15 322.81 312.31 313.26 315.94"/><polygon class="cls-308" points="313.26 315.94 322.81 312.31 320.16 307.92 313.26 315.94"/><polygon class="cls-309" points="320.16 307.92 322.81 312.31 334.36 298.82 320.16 307.92"/><polygon class="cls-310" points="322.81 312.31 334.36 313.13 334.36 298.82 322.81 312.31"/><polygon class="cls-311" points="322.81 312.31 330.89 324.62 334.36 313.13 322.81 312.31"/><polygon class="cls-312" points="308.78 315.94 313.26 315.94 320.16 307.92 308.78 315.94"/><polygon class="cls-313" points="308.78 315.94 310.3 327.87 313.26 315.94 308.78 315.94"/><polygon class="cls-314" points="318.25 332.34 329.21 327.87 322.29 327.51 318.25 332.34"/><polygon class="cls-315" points="318.25 332.34 326.67 337.08 329.21 327.87 318.25 332.34"/><polygon class="cls-316" points="329.21 327.87 326.67 337.08 341.25 330.31 329.21 327.87"/><polygon class="cls-317" points="350.3 328.95 359.22 323.97 352.82 316.77 350.3 328.95"/><polygon class="cls-318" points="352.82 316.77 359.22 323.97 364.64 313.13 352.82 316.77"/><polygon class="cls-319" points="359.22 323.97 365.58 316.58 364.64 313.13 359.22 323.97"/><polygon class="cls-320" points="359.22 323.97 360.38 344.67 365.58 316.58 359.22 323.97"/><polygon class="cls-321" points="360.38 344.67 372.63 342.61 365.58 316.58 360.38 344.67"/><polygon class="cls-322" points="350.3 328.95 360.38 344.67 359.22 323.97 350.3 328.95"/><polygon class="cls-323" points="341.95 351.61 360.38 344.67 350.3 328.95 341.95 351.61"/><polygon class="cls-324" points="341.95 351.61 345.09 361.53 360.38 344.67 341.95 351.61"/><polygon class="cls-325" points="341.95 351.61 327.53 368.74 345.09 361.53 341.95 351.61"/><polygon class="cls-326" points="372.63 237.68 374.83 262.46 376.2 238.47 372.63 237.68"/><polygon class="cls-327" points="374.83 262.46 387.33 242.81 376.2 238.47 374.83 262.46"/><polygon class="cls-328" points="376.2 238.47 387.33 242.81 380.18 230.24 376.2 238.47"/><polygon class="cls-329" points="380.18 230.24 387.33 242.81 403.63 227.13 380.18 230.24"/><polygon class="cls-330" points="404.31 210.17 414.42 209.77 409.1 208.9 404.31 210.17"/><polygon class="cls-331" points="404.31 210.17 387.51 210.17 399.05 207.87 404.31 210.17"/><polygon class="cls-332" points="404.31 210.17 414.42 209.77 415.66 211.07 404.31 210.17"/><polygon class="cls-333" points="387.33 242.81 417.83 237.52 403.63 227.13 387.33 242.81"/><polygon class="cls-334" points="387.33 242.81 409.92 254.7 417.83 237.52 387.33 242.81"/><polygon class="cls-335" points="384.77 262.46 409.92 254.7 387.33 242.81 384.77 262.46"/><polygon class="cls-336" points="374.83 262.46 384.77 262.46 387.33 242.81 374.83 262.46"/><polygon class="cls-337" points="368.69 275.26 384.77 262.46 374.83 262.46 368.69 275.26"/><polygon class="cls-338" points="368.69 275.26 380.18 284.22 384.77 262.46 368.69 275.26"/><polygon class="cls-339" points="361.5 289.39 380.18 284.22 368.69 275.26 361.5 289.39"/><polygon class="cls-340" points="361.5 289.39 364.64 313.13 380.18 284.22 361.5 289.39"/><polygon class="cls-341" points="352.82 316.77 364.64 313.13 361.5 289.39 352.82 316.77"/><polygon class="cls-342" points="380.18 284.22 397.99 258.38 384.77 262.46 380.18 284.22"/><polygon class="cls-343" points="380.18 284.22 391.9 286.89 397.99 258.38 380.18 284.22"/><polygon class="cls-344" points="380.18 284.22 382.6 318.73 391.9 286.89 380.18 284.22"/><polygon class="cls-345" points="364.64 313.13 382.6 318.73 380.18 284.22 364.64 313.13"/><polygon class="cls-346" points="364.64 313.13 372.63 342.61 382.6 318.73 364.64 313.13"/><polygon class="cls-347" points="391.9 286.89 409.92 254.7 397.99 258.38 391.9 286.89"/><polygon class="cls-348" points="391.9 286.89 405.91 284.22 409.92 254.7 391.9 286.89"/><polygon class="cls-349" points="391.9 286.89 399.62 303.69 405.91 284.22 391.9 286.89"/><polygon class="cls-350" points="341.52 253.87 343.77 260.81 348.16 255.24 341.52 253.87"/><polygon class="cls-351" points="343.77 260.81 348.16 261.17 348.16 255.24 343.77 260.81"/><polygon class="cls-352" points="343.77 260.81 344.99 268.03 348.16 261.17 343.77 260.81"/><polygon class="cls-353" points="344.99 268.03 347.66 269.19 348.16 261.17 344.99 268.03"/><polygon class="cls-354" points="344.99 268.03 345.53 273.16 347.66 269.19 344.99 268.03"/><polygon class="cls-355" points="341.25 330.31 326.67 337.08 341.95 351.61 341.25 330.31"/><polygon class="cls-356" points="341.25 330.31 341.95 351.61 350.3 328.95 341.25 330.31"/></svg>